<?xml version="1.0" encoding="utf-8"?>
<!-- Generator: Adobe Illustrator 27.8.1, SVG Export Plug-In . SVG Version: 6.00 Build 0)  -->
<svg version="1.1" id="Ebene_1" xmlns="http://www.w3.org/2000/svg" xmlns:xlink="http://www.w3.org/1999/xlink" x="0px" y="0px"
	 viewBox="0 0 308.79 148.79" style="enable-background:new 0 0 308.79 148.79;" xml:space="preserve">
<style type="text/css">
	.st0{fill:#FFFFFF;}
	.st1{fill:#50AE2F;}
</style>
<rect class="st0" width="308.79" height="148.79"/>
<path class="st1" d="M39.7,58.81c1.55-1.42,4.19-0.6,5.59,0.83c1.15,1.2,3.09,4.36,0.62,6.5c-2.2,1.9-5.01,0.7-6.4-1.27
	C38.31,63.14,38.26,60.11,39.7,58.81L39.7,58.81z M44.77,51.99c1.56-1.6,1.23-4.19,0.07-5.48c-1.18-1.4-3.58-0.94-4.88,0.55
	c-0.88,1.01-1.72,3.76-0.3,5.5C40.69,53.89,43.43,53.35,44.77,51.99L44.77,51.99z M63.72,56.69c-0.95,2.39,0.18,4.82,2.09,5.86
	c1.93,1.07,4.44,0.64,5.65-2.65c0.82-2.32,0.33-5.47-2.26-6.57C66.78,52.33,64.74,54.06,63.72,56.69L63.72,56.69z M57.95,59.62
	c3.3-2.43,3.86-7.08,1.53-10.07c-2.34-2.99-6.8-3.13-9.89-0.86c-3.07,2.29-3.75,6.69-1.63,9.83C50.22,61.88,54.72,62.01,57.95,59.62
	L57.95,59.62z M61.94,40.83c-2.1,0.79-3.35,4.64-0.15,7.06c1.8,1.33,4.38,0.96,5.69-0.86c0.85-1.16,0.53-3.11-0.07-4.29
	C66.43,40.84,64.2,39.93,61.94,40.83L61.94,40.83z M24.45,45.18c5.12,0.83,11.61,1.17,11.61,1.17s-1.63-1.32-3.6-3.79
	c-1.98-2.47-4.91-8.22-3.66-9.23c1.59-1.29,5.25,1.79,7.81,3.01c3.4,1.62,6.54,2.21,6.54,2.21s-2.87-7.36-4-12.16
	c-0.84-3.56-1.79-10.29-0.99-13.72h-25.5v29.88C15.96,42.92,21.04,44.63,24.45,45.18L24.45,45.18z M40.69,86.39
	c0.97-6.82,3.72-11.12,3.72-11.12s-5.89,3.43-7.76,4.48c-1.87,1.05-4.81,2.16-6.47,1.62c-1.66-0.54,2.09-6.5,3.47-8.15
	c1.39-1.64,4.01-4.66,4.01-4.66s-7.45,2.39-11.12,3.09c-2.9,0.56-10.37,0.98-10.95-0.44c-0.58-1.41,6.51-6.82,9.21-8.75
	c2.69-1.94,8.87-5.14,8.87-5.14s-6.67-0.02-13.46-3.1c-2.36-1.07-5.32-3.1-7.55-5.21v50.3h28.02
	C40.11,95.68,40.11,90.46,40.69,86.39L40.69,86.39z M54.86,43.74c1.48-1.5,0.91-3.74-0.84-4.6c-1.47-0.71-4.23-0.36-5.59,1.6
	c-0.76,1.12-0.71,3.72,1.45,4.52C50.92,45.65,53.15,45.44,54.86,43.74L54.86,43.74z M73.7,12.66c-0.14,2.94-2.54,9.04-3.65,12.65
	c-1.43,4.63-4.06,12.86-4.06,12.86s4.78-4.79,6.7-6.79c1.92-2,5.24-6.32,7.23-6.04c2.04,0.29-0.27,7.56-1.45,11.22
	c-1.18,3.65-3.83,9.43-3.83,9.43s5.6,0.43,10.86-0.04c5.26-0.46,12.42-2.62,13.54-1.21c1.62,2.04-4.11,7-9.13,9.3
	c-3.99,1.84-13.17,3.1-13.17,3.1s4.27,3.23,7.9,5.02c3.64,1.79,14.51,6.62,13.98,8.23c-0.76,2.33-9.27,1.88-13.53,1.13
	c-4.27-0.75-11.26-3.44-11.26-3.44s2.44,4.43,4.72,6.91c2,2.18,9.97,8.9,8.9,10.97c-0.98,1.89-10.52-0.51-14.6-3.33
	c-4.28-2.95-7.49-6.63-7.49-6.63s0.49,5.9,0.32,8.49c-0.17,2.58-0.6,7.94-2.51,8.29c-1.53,0.28-4.6-3.78-5.65-6.95
	c-1.05-3.18-1.76-7.66-1.76-7.66s-3.03,5.62-4.66,9.52c-0.98,2.35-3.02,7.75-4.98,11.62h250.02V12.66H73.7L73.7,12.66z M69.43,12.66
	H42.37c2.11,2.84,4.49,7.82,5.64,10.32c1.7,3.68,6.19,11.37,6.19,11.37c2.99-6.22,2.65-6.58,5.99-11.16
	C62.45,20.12,66.33,15.24,69.43,12.66L69.43,12.66z M58.27,72.27c2.81-0.6,5.1-3.25,3.47-6.21c-1.46-2.68-4.64-3.06-7.75-1.74
	c-2.6,1.09-3.49,3.54-2.66,5.5C52.18,71.79,54.47,73.08,58.27,72.27L58.27,72.27z M132.37,73.13c10.56,0,17.36-7.13,17.36-17.15
	c0-10.02-6.79-17.15-17.36-17.15h-4.47v34.31H132.37L132.37,73.13z M111.97,86.64V25.32h23.49c16.93,0,30.86,13.18,30.86,30.66
	c0,17.48-13.93,30.66-30.86,30.66H111.97L111.97,86.64z M185.34,76.25l-3.99,10.39h-16.97l24.8-61.31h17.08l24.8,61.31h-16.97
	l-3.99-10.39H185.34L185.34,76.25z M205.41,64.05l-7.59-19.77h-0.2l-7.59,19.77H205.41L205.41,64.05z M251.29,64.05l14.84-38.72
	h17.34l-24.8,61.31h-14.95l-24.8-61.31h17.34l14.84,38.72H251.29L251.29,64.05z"/>
<path d="M27.49,122.64c0-2.94-0.62-5.38-1.89-7.15c-1.95-2.69-4.3-3.53-7.98-3.53h-4.95v21.32h5.32c3.71,0,5.69-1.02,7.18-2.88
	C26.59,128.65,27.49,126.11,27.49,122.64L27.49,122.64z M24.18,123.01c0,2.1-0.37,4.02-1.15,5.45c-0.96,1.73-2.54,2.38-4.98,2.38
	H15.7v-16.49h2.41c2.07,0,3.31,0.4,4.49,1.89C23.87,117.85,24.18,120.04,24.18,123.01L24.18,123.01z M43.15,126.14v-0.5
	c-0.03-3.56-0.53-5.29-1.89-6.68c-1.08-1.11-2.48-1.67-4.21-1.67c-1.92,0-3.44,0.68-4.67,2.14c-1.33,1.58-1.86,3.31-1.86,6
	c0,5.08,2.63,8.2,6.93,8.2c2.01,0,3.84-0.65,5.35-1.98l-1.08-1.7c-1.11,0.99-2.35,1.49-3.81,1.49c-1.49,0-2.75-0.59-3.56-1.83
	c-0.46-0.74-0.65-1.76-0.65-3.09v-0.37H43.15L43.15,126.14z M40.18,124.04h-6.44c0-2.82,1.08-4.58,3.25-4.58
	c0.99,0,1.73,0.46,2.23,1.08C39.83,121.31,40.18,122.55,40.18,124.04L40.18,124.04z M59.21,132.27c-0.62-0.53-0.96-1.64-0.96-3.22
	v-11.67l-2.82,0.56v11.14c-0.65,1.36-2.14,2.44-3.53,2.44c-0.68,0-1.39-0.31-1.8-0.68c-0.56-0.53-0.71-1.15-0.71-2.72v-10.8
	l-2.82,0.56v11.02c0,1.11,0.09,1.98,0.37,2.6c0.65,1.42,2.2,2.32,4.18,2.32c1.92,0,3.44-0.71,4.67-2.23
	c0.28,1.05,0.68,1.64,1.45,2.23L59.21,132.27L59.21,132.27z M69.64,117.78h-3.78c0-1.58,0.15-3.53,0.28-4.64l-2.94,0.68
	c-0.15,1.18-0.19,2.75-0.19,3.96h-1.86v2.01h1.86v10c0,2.14,0.43,2.54,1.05,3.09c0.68,0.62,1.92,0.84,2.72,0.84
	c1.02,0,1.95-0.22,2.82-0.65l-0.34-1.73c-0.5,0.22-0.93,0.31-1.45,0.31c-1.55,0-2.01-0.59-2.01-2.51v-9.35h3.06L69.64,117.78
	L69.64,117.78z M83.72,128.52c0-2.04-1.18-3.68-4.02-4.33l-2.01-0.46c-1.64-0.37-2.2-0.99-2.2-2.1c0-1.39,1.05-2.32,2.69-2.32
	c1.24,0,2.38,0.4,3.81,1.11l0.96-2.01c-1.27-0.74-3-1.27-4.89-1.27c-3.34,0-5.6,1.98-5.6,4.83c0,2.29,1.33,3.81,3.78,4.3l1.89,0.37
	c1.8,0.34,2.6,1.11,2.6,2.44c0,1.52-1.18,2.51-2.88,2.51c-1.73,0-3.5-0.71-4.98-1.55l-1.02,2.04c1.79,1.05,3.9,1.64,5.79,1.64
	C81.24,133.72,83.72,131.62,83.72,128.52L83.72,128.52z M97.66,131.59l-1.39-1.76c-0.93,1.05-2.07,1.61-3.22,1.61
	c-0.9,0-1.67-0.34-2.23-0.93c-0.8-0.87-1.24-2.29-1.24-4.46c0-2.14,0.22-3.68,0.74-4.74c0.53-1.05,1.55-1.67,2.72-1.67
	c0.99,0,1.7,0.31,2.72,1.21l1.49-1.95c-1.18-1.08-2.54-1.64-4.21-1.64c-1.52,0-2.88,0.56-4.02,1.58c-1.49,1.33-2.6,3.34-2.6,6.84
	c0,2.35,0.46,4.15,1.49,5.6c1.08,1.55,2.75,2.32,4.98,2.32C94.87,133.6,96.17,133.04,97.66,131.59L97.66,131.59z M112.7,133.29
	v-11.05c0-1.39-0.06-1.79-0.31-2.51c-0.46-1.39-2.07-2.32-3.9-2.32c-1.15,0-2.23,0.31-3.37,1.05c-0.62,0.4-0.96,0.65-1.64,1.27
	c0.06-0.8,0.09-1.52,0.09-2.07v-3.47c0-1.52-0.12-2.66-0.34-3.59l-2.88,0.59c0.22,0.9,0.34,1.92,0.34,3.25v18.85h2.88v-11.14
	c1.21-1.39,2.79-2.26,4.12-2.26c0.74,0,1.42,0.28,1.7,0.59c0.31,0.34,0.53,1.08,0.53,2.17v10.65H112.7L112.7,133.29z M129.02,126.14
	v-0.5c-0.03-3.56-0.53-5.29-1.89-6.68c-1.08-1.11-2.48-1.67-4.21-1.67c-1.92,0-3.44,0.68-4.67,2.14c-1.33,1.58-1.86,3.31-1.86,6
	c0,5.08,2.63,8.2,6.93,8.2c2.01,0,3.84-0.65,5.35-1.98l-1.08-1.7c-1.11,0.99-2.35,1.49-3.81,1.49c-1.49,0-2.75-0.59-3.56-1.83
	c-0.46-0.74-0.65-1.76-0.65-3.09v-0.37H129.02L129.02,126.14z M126.05,124.04h-6.44c0-2.82,1.08-4.58,3.25-4.58
	c0.99,0,1.73,0.46,2.23,1.08C125.71,121.31,126.05,122.55,126.05,124.04L126.05,124.04z M140.39,117.44
	c-0.25-0.09-0.59-0.15-0.96-0.15c-1.64,0-2.97,0.9-4.21,2.69v-0.28c0-0.77-0.25-1.79-0.53-2.38l-2.75,0.71
	c0.37,0.96,0.59,1.98,0.59,3.87v11.39h2.85v-10c0-1.7,1.49-3.16,3.22-3.16c0.31,0,0.53,0.06,0.8,0.15L140.39,117.44L140.39,117.44z
	 M165.17,133.29l-6.87-21.35h-3.71l-6.99,21.35h3.09l1.86-6.03h7.4l1.89,6.03H165.17L165.17,133.29z M159.29,124.78h-6
	c0.37-1.02,2.63-8.67,2.94-9.87h0.19C156.7,116.14,158.92,123.79,159.29,124.78L159.29,124.78z M172.3,133.26l-0.5-1.76
	c-0.31,0.06-0.65,0.03-0.87-0.12c-0.4-0.28-0.5-0.84-0.5-1.92v-14.42c0-1.92,0-3.4-0.28-4.43l-2.97,0.62
	c0.25,1.21,0.34,2.26,0.34,4.46v14.05c0,1.52,0.12,2.04,0.59,2.69c0.59,0.84,1.3,1.18,2.41,1.18
	C171.21,133.6,171.71,133.51,172.3,133.26L172.3,133.26z M187.98,125.27c0-5.32-2.66-7.89-5.82-7.89c-1.64,0-3.19,0.71-4.39,2.17
	c0-1.3-0.06-1.76-0.19-2.23l-2.75,0.46c0.22,0.99,0.34,1.98,0.34,3.81v18.23l2.79-0.65v-5.45c0-0.56,0-1.24-0.06-1.73
	c1.21,1.08,2.6,1.61,4.02,1.61C185.88,133.6,187.98,130.1,187.98,125.27L187.98,125.27z M184.92,125.61c0,3.78-1.15,5.69-3.65,5.69
	c-1.15,0-2.35-0.68-3.31-1.7v-7.89c1.05-1.24,2.32-1.92,3.71-1.92C184.12,119.8,184.92,121.93,184.92,125.61L184.92,125.61z
	 M203.59,126.14v-0.5c-0.03-3.56-0.53-5.29-1.89-6.68c-1.08-1.11-2.48-1.67-4.21-1.67c-1.92,0-3.44,0.68-4.67,2.14
	c-1.33,1.58-1.86,3.31-1.86,6c0,5.08,2.63,8.2,6.93,8.2c2.01,0,3.84-0.65,5.35-1.98l-1.08-1.7c-1.11,0.99-2.35,1.49-3.81,1.49
	c-1.49,0-2.75-0.59-3.56-1.83c-0.46-0.74-0.65-1.76-0.65-3.09v-0.37H203.59L203.59,126.14z M200.62,124.04h-6.44
	c0-2.82,1.08-4.58,3.25-4.58c0.99,0,1.73,0.46,2.23,1.08C200.28,121.31,200.62,122.55,200.62,124.04L200.62,124.04z M218.65,133.29
	v-11.73c0-0.71-0.12-1.39-0.37-1.95c-0.56-1.33-2.01-2.2-3.65-2.2c-0.96,0-1.98,0.25-2.88,0.77c-0.59,0.34-1.02,0.68-2.01,1.52
	c0-0.96-0.15-1.64-0.53-2.38l-2.69,0.74c0.43,1.11,0.59,1.83,0.59,3.68v11.54h2.82v-11.48c1.05-1.11,2.72-1.98,3.84-1.98
	c0.71,0,1.27,0.22,1.58,0.62c0.37,0.5,0.5,0.99,0.5,2.38v10.46H218.65L218.65,133.29z M234.72,117.78h-3l-2.94,8.91
	c-0.43,1.27-0.74,2.48-0.93,3.4h-0.06c-0.25-1.05-0.59-2.29-0.93-3.34l-3.06-9.38l-2.94,0.46l5.54,15.57h2.66L234.72,117.78
	L234.72,117.78z M248.6,126.14v-0.5c-0.03-3.56-0.53-5.29-1.89-6.68c-1.08-1.11-2.48-1.67-4.21-1.67c-1.92,0-3.43,0.68-4.67,2.14
	c-1.33,1.58-1.86,3.31-1.86,6c0,5.08,2.63,8.2,6.93,8.2c2.01,0,3.84-0.65,5.35-1.98l-1.08-1.7c-1.12,0.99-2.35,1.49-3.81,1.49
	c-1.49,0-2.76-0.59-3.56-1.83c-0.46-0.74-0.65-1.76-0.65-3.09v-0.37H248.6L248.6,126.14z M245.63,124.04h-6.44
	c0-2.82,1.08-4.58,3.25-4.58c0.99,0,1.73,0.46,2.23,1.08C245.29,121.31,245.63,122.55,245.63,124.04L245.63,124.04z M259.98,117.44
	c-0.25-0.09-0.59-0.15-0.96-0.15c-1.64,0-2.97,0.9-4.21,2.69v-0.28c0-0.77-0.25-1.79-0.53-2.38l-2.75,0.71
	c0.37,0.96,0.59,1.98,0.59,3.87v11.39h2.85v-10c0-1.7,1.49-3.16,3.22-3.16c0.31,0,0.53,0.06,0.8,0.15L259.98,117.44L259.98,117.44z
	 M273.67,126.14v-0.5c-0.03-3.56-0.53-5.29-1.89-6.68c-1.08-1.11-2.48-1.67-4.21-1.67c-1.92,0-3.43,0.68-4.67,2.14
	c-1.33,1.58-1.86,3.31-1.86,6c0,5.08,2.63,8.2,6.93,8.2c2.01,0,3.84-0.65,5.35-1.98l-1.08-1.7c-1.11,0.99-2.35,1.49-3.81,1.49
	c-1.48,0-2.75-0.59-3.56-1.83c-0.47-0.74-0.65-1.76-0.65-3.09v-0.37H273.67L273.67,126.14z M270.7,124.04h-6.44
	c0-2.82,1.08-4.58,3.25-4.58c0.99,0,1.73,0.46,2.23,1.08C270.36,121.31,270.7,122.55,270.7,124.04L270.7,124.04z M280.09,133.29
	v-15.88l-2.94,0.46v15.41H280.09L280.09,133.29z M280.68,113.02c0-1.18-0.93-2.07-2.04-2.07c-1.11,0-2.01,0.93-2.01,2.07
	c0,1.11,0.87,2.04,1.98,2.04C279.75,115.06,280.68,114.13,280.68,113.02L280.68,113.02z M296.13,133.29v-11.73
	c0-0.71-0.12-1.39-0.37-1.95c-0.56-1.33-2.01-2.2-3.65-2.2c-0.96,0-1.98,0.25-2.88,0.77c-0.59,0.34-1.02,0.68-2.01,1.52
	c0-0.96-0.15-1.64-0.53-2.38l-2.69,0.74c0.43,1.11,0.59,1.83,0.59,3.68v11.54h2.82v-11.48c1.05-1.11,2.72-1.98,3.84-1.98
	c0.71,0,1.27,0.22,1.58,0.62c0.37,0.5,0.5,0.99,0.5,2.38v10.46H296.13L296.13,133.29z"/>
</svg>
